<svg xmlns="http://www.w3.org/2000/svg" fill="none" viewBox="0 0 394 80">
  <path fill="#000" fill-rule="evenodd" d="M262 0h68.5v12.7h-27.2v66.7h-13.6V12.7H262V0zM0 0h12.2v40.4H57.6V0H69.8v79.3H57.6V47.5H12.2v31.8H0V0zm68.7 0h12.2v40.4h45.4V0h12.2v79.3h-12.2V47.5H80.9v31.8H68.7V0zM125 0h12.2v40.4h45.4V0h12.2v79.3h-12.2V47.5h-45.4v31.8H125V0zM181.7 0h12.2v40.4h45.4V0h12.2v79.3h-12.2V47.5h-45.4v31.8h-12.2V0zM238.4 0h12.2v40.4h45.4V0h12.2v79.3h-12.2V47.5h-45.4v31.8h-12.2V0z" clip-rule="evenodd"/>
  <path fill="#000" d="M334.7 0h12.2v40.4h45.4V0h12.2v79.3h-12.2V47.5h-45.4v31.8h-12.2V0z"/>
</svg>
