<svg xmlns="http://www.w3.org/2000/svg" viewBox="0 0 283 64" fill="none">
  <path fill="currentColor" d="M141.04 16c-11.04 0-19 7.2-19 18s8.96 18 20 18c6.67 0 12.55-2.64 16.19-7.09l-7.65-4.42c-2.02 2.21-5.09 3.5-8.54 3.5-4.79 0-8.86-2.5-10.37-6.5h28.02c.22-1.12.35-2.28.35-3.5 0-10.79-7.96-17.99-19-17.99zm-9.46 14.5c1.25-3.99 4.67-6.5 9.45-6.5 4.79 0 8.21 2.51 9.45 6.5h-18.9zM248.72 16c-11.04 0-19 7.2-19 18s8.96 18 20 18c6.67 0 12.55-2.64 16.19-7.09l-7.65-4.42c-2.02 2.21-5.09 3.5-8.54 3.5-4.79 0-8.86-2.5-10.37-6.5h28.02c.22-1.12.35-2.28.35-3.5 0-10.79-7.96-17.99-19-17.99zm-9.45 14.5c1.25-3.99 4.67-6.5 9.45-6.5 4.79 0 8.21 2.51 9.45 6.5h-18.9zM200.24 34c0 6 1.9 10.5 4.86 13.43 3.05 2.97 7.18 4.57 11.86 4.57 4.68 0 8.8-1.6 11.86-4.57 2.96-2.93 4.86-7.43 4.86-13.43s-1.9-10.5-4.86-13.43c-3.05-2.97-7.18-4.57-11.86-4.57-4.68 0-8.8 1.6-11.86 4.57-2.96 2.93-4.86 7.43-4.86 13.43zm11.86-8c3.06 0 5.48 1.11 7.18 2.81 1.7 1.7 2.81 4.12 2.81 7.18s-1.11 5.48-2.81 7.18c-1.7 1.7-4.12 2.81-7.18 2.81s-5.48-1.11-7.18-2.81c-1.7-1.7-2.81-4.12-2.81-7.18s1.11-5.48 2.81-7.18c1.7-1.7 4.12-2.81 7.18-2.81zM114.68 16c-11.04 0-19 7.2-19 18s8.96 18 20 18c6.67 0 12.55-2.64 16.19-7.09l-7.65-4.42c-2.02 2.21-5.09 3.5-8.54 3.5-4.79 0-8.86-2.5-10.37-6.5h28.02c.22-1.12.35-2.28.35-3.5 0-10.79-7.96-17.99-19-17.99zm-9.46 14.5c1.25-3.99 4.67-6.5 9.45-6.5 4.79 0 8.21 2.51 9.45 6.5h-18.9zM78.24 16c-11.04 0-19 7.2-19 18s8.96 18 20 18c6.67 0 12.55-2.64 16.19-7.09l-7.65-4.42c-2.02 2.21-5.09 3.5-8.54 3.5-4.79 0-8.86-2.5-10.37-6.5h28.02c.22-1.12.35-2.28.35-3.5 0-10.79-7.96-17.99-19-17.99zm-9.46 14.5c1.25-3.99 4.67-6.5 9.45-6.5 4.79 0 8.21 2.51 9.45 6.5h-18.9zM0 0v64h12.2V0H0zm24.4 0v64h12.2V0H24.4z"/>
</svg>
